<svg viewBox="0 0 300 300" xmlns="http://www.w3.org/2000/svg">
<title>
Unnamed scene
</title>
<desc>
Creator: GL2PS 1.2.7
For: bugle
CreationDate: Fri Feb 24 14:32:41 2006
</desc>
<defs>
</defs>
<polygon fill="#320600" points="70.2089,266.108 65.683,261.486 69.4927,273.823"/>
<polygon fill="#320600" points="65.683,261.486 62.4273,258.161 61.7495,265.744"/>
<polygon fill="#320600" points="65.683,261.486 61.7495,265.744 69.4927,273.823"/>
<polygon fill="#5b0b00" points="52.9136,256.538 55.2046,250.771 47.5864,242.992"/>
<polygon fill="#5b0b00" points="52.9136,256.538 47.5864,242.992 48.5147,251.948"/>
<polygon fill="#5b0b00" points="48.5147,251.948 47.5864,242.992 45.35,248.646"/>
<polygon fill="#280500" points="55.2046,250.771 51.9585,247.454 44.3774,239.712"/>
<polygon fill="#280500" points="55.2046,250.771 44.3774,239.712 47.5864,242.992"/>
<polygon fill="#00280a" points="204.16,203.419 189.737,194.277 208.611,209.953"/>
<polygon fill="#00280a" points="208.611,209.953 189.737,194.277 195.63,202.814"/>
<polygon fill="#00280a" points="208.611,209.953 195.63,202.814 210.08,212.11"/>
<polygon fill="#00280a" points="189.433,203.297 175.246,194.043 188.906,212.753"/>
<polygon fill="#00280a" points="188.906,212.753 175.246,194.043 174.644,206.33"/>
<polygon fill="#00280a" points="188.906,212.753 174.644,206.33 188.731,215.886"/>
<polygon fill="#00280a" points="171.992,204.733 158.106,195.308 174.493,207.807"/>
<polygon fill="#00280a" points="174.493,207.807 158.106,195.308 161.408,199.33"/>
<polygon fill="#00280a" points="174.493,207.807 161.408,199.33 175.322,208.827"/>
<polygon fill="#00761d" points="165.753,184.726 173.857,201.792 179.18,193.396"/>
<polygon fill="#00761d" points="165.753,184.726 158.106,195.308 173.857,201.792"/>
<polygon fill="#00761d" points="173.857,201.792 158.106,195.308 171.992,204.733"/>
<polygon fill="#280500" points="109.232,178.821 111.863,183.037 120.639,189.391"/>
<polygon fill="#280500" points="109.232,178.821 120.639,189.391 117.991,185.114"/>
<polygon fill="#9d1300" points="87.0498,208.919 91.2812,213.045 95.3755,215.865"/>
<polygon fill="#ad1500" points="91.9497,210.081 87.0498,208.919 95.3755,215.865"/>
<polygon fill="#ad1500" points="91.9497,210.081 95.3755,215.865 100.339,217.019"/>
<polygon fill="#af1500" points="97.2173,209.519 91.9497,210.081 100.339,217.019"/>
<polygon fill="#af1500" points="97.2173,209.519 100.339,217.019 105.683,216.417"/>
<polygon fill="#a51400" points="102.347,207.307 97.2173,209.519 105.683,216.417"/>
<polygon fill="#a51400" points="102.347,207.307 105.683,216.417 110.892,214.137"/>
<polygon fill="#8e1100" points="106.854,203.669 102.347,207.307 110.892,214.137"/>
<polygon fill="#8e1100" points="106.854,203.669 110.892,214.137 115.476,210.411"/>
<polygon fill="#6d0d00" points="110.32,198.955 106.854,203.669 115.476,210.411"/>
<polygon fill="#6d0d00" points="110.32,198.955 115.476,210.411 119.008,205.596"/>
<polygon fill="#460800" points="112.421,193.607 110.32,198.955 119.008,205.596"/>
<polygon fill="#460800" points="112.421,193.607 119.008,205.596 121.16,200.144"/>
<polygon fill="#280500" points="112.956,188.129 112.421,193.607 121.16,200.144"/>
<polygon fill="#280500" points="112.956,188.129 121.16,200.144 121.725,194.567"/>
<polygon fill="#280500" points="111.863,183.037 112.956,188.129 121.725,194.567"/>
<polygon fill="#280500" points="111.863,183.037 121.725,194.567 120.639,189.391"/>
<polygon fill="#280500" points="105.299,175.901 109.232,178.821 117.991,185.114"/>
<polygon fill="#280500" points="105.299,175.901 117.991,185.114 114.016,182.162"/>
<polygon fill="#a31400" points="164.948,188.142 175.398,192 165.953,185.881"/>
<polygon fill="#a31400" points="164.948,188.142 165.953,185.881 155.607,182.033"/>
<polygon fill="#008922" points="192.823,173.444 207.455,182.056 208.075,180.827"/>
<polygon fill="#008922" points="192.823,173.444 208.075,180.827 195.23,168.661"/>
<polygon fill="#00761d" points="208.075,180.827 209.938,177.137 195.23,168.661"/>
<polygon fill="#003f0f" points="195.23,168.661 209.938,177.137 209.876,175.885"/>
<polygon fill="#003f0f" points="195.23,168.661 209.876,175.885 194.949,163.759"/>
<polygon fill="#00390e" points="209.876,175.885 209.689,172.116 194.949,163.759"/>
<polygon fill="#00280a" points="194.949,163.759 209.689,172.116 208.964,171.313"/>
<polygon fill="#00a429" points="199.823,184.944 203.175,185.026 188.633,176.312"/>
<polygon fill="#00ae2b" points="188.633,176.312 203.175,185.026 204.246,184.282"/>
<polygon fill="#00ae2b" points="188.633,176.312 204.246,184.282 192.823,173.444"/>
<polygon fill="#00a529" points="204.246,184.282 207.455,182.056 192.823,173.444"/>
<polygon fill="#00280a" points="176.152,168.344 177.734,169.53 177.297,169.029"/>
<polygon fill="#00280a" points="176.152,168.344 163.074,160.521 165.345,163.097"/>
<polygon fill="#00280a" points="176.152,168.344 165.345,163.097 177.734,169.53"/>
<polygon fill="#00280a" points="177.734,169.53 165.345,163.097 179.589,171.655"/>
<polygon fill="#003f0f" points="179.147,192.018 165.355,183.889 179.449,192.972"/>
<polygon fill="#00761d" points="165.355,183.889 165.753,184.726 179.18,193.396"/>
<polygon fill="#00761d" points="165.355,183.889 179.18,193.396 179.449,192.972"/>
<polygon fill="#008922" points="179.589,171.655 165.345,163.097 178.634,175.016"/>
<polygon fill="#008922" points="178.634,175.016 165.345,163.097 164.125,167.456"/>
<polygon fill="#008922" points="178.634,175.016 164.125,167.456 178.317,176.134"/>
<polygon fill="#003f0f" points="166.718,182.239 152.772,173.326 166.717,186.948"/>
<polygon fill="#003f0f" points="166.717,186.948 152.772,173.326 152.813,179.443"/>
<polygon fill="#003f0f" points="166.717,186.948 152.813,179.443 166.717,188.513"/>
<polygon fill="#00a82a" points="178.317,176.134 164.125,167.456 169.632,180.705"/>
<polygon fill="#00a82a" points="169.632,180.705 164.125,167.456 152.772,173.326"/>
<polygon fill="#00a82a" points="169.632,180.705 152.772,173.326 166.718,182.239"/>
<polygon fill="#af1500" points="163.026,169.082 174.943,169.038 165.396,163.298"/>
<polygon fill="#af1500" points="163.026,169.082 165.396,163.298 153.621,163.285"/>
<polygon fill="#00280a" points="157.938,154.691 176.152,168.344 177.297,169.029"/>
<polygon fill="#00280a" points="157.938,154.691 177.297,169.029 172.11,163.087"/>
<polygon fill="#00280a" points="176.152,168.344 157.938,154.691 163.074,160.521"/>
<polygon fill="#008922" points="170.773,159.225 172.971,161.607 173.446,160.792"/>
<polygon fill="#008922" points="170.773,159.225 159.234,152.464 157.938,154.691"/>
<polygon fill="#008922" points="170.773,159.225 157.938,154.691 172.971,161.607"/>
<polygon fill="#008922" points="172.971,161.607 157.938,154.691 172.11,163.087"/>
<polygon fill="#00ad2b" points="237.027,165.864 221.823,157.848 229.171,165.237"/>
<polygon fill="#00a328" points="229.757,145.456 214.504,137.881 221.803,150.582"/>
<polygon fill="#00a328" points="221.803,150.582 214.504,137.881 204.1,144.49"/>
<polygon fill="#00a328" points="221.803,150.582 204.1,144.49 219.137,152.301"/>
<polygon fill="#006b1a" points="211.758,136.443 196.721,128.978 206.842,145.67"/>
<polygon fill="#006b1a" points="206.842,145.67 196.721,128.978 190.364,140.929"/>
<polygon fill="#006b1a" points="206.842,145.67 190.364,140.929 205.204,148.744"/>
<polygon fill="#00280a" points="188.625,151.364 189.878,152.84 189.852,152.037"/>
<polygon fill="#00280a" points="188.625,151.364 175.293,144.04 175.451,147.998"/>
<polygon fill="#00280a" points="188.625,151.364 175.451,147.998 189.878,152.84"/>
<polygon fill="#00280a" points="189.878,152.84 175.451,147.998 189.983,156.096"/>
<polygon fill="#00ae2b" points="189.983,156.096 175.451,147.998 187.532,158.586"/>
<polygon fill="#00ae2b" points="187.532,158.586 175.451,147.998 172.261,151.214"/>
<polygon fill="#00ae2b" points="187.532,158.586 172.261,151.214 186.714,159.417"/>
<polygon fill="#008922" points="161.282,148.944 170.773,159.225 173.446,160.792"/>
<polygon fill="#008922" points="161.282,148.944 173.446,160.792 175.556,157.166"/>
<polygon fill="#008922" points="170.773,159.225 161.282,148.944 159.234,152.464"/>
<polygon fill="#00aa2a" points="186.714,159.417 172.261,151.214 178.368,157.734"/>
<polygon fill="#00aa2a" points="178.368,157.734 172.261,151.214 161.282,148.944"/>
<polygon fill="#00aa2a" points="178.368,157.734 161.282,148.944 175.556,157.166"/>
<polygon fill="#00a028" points="205.204,148.744 190.364,140.929 202.259,149.376"/>
<polygon fill="#00280a" points="174.941,135.233 188.625,151.364 189.852,152.037"/>
<polygon fill="#00280a" points="174.941,135.233 189.852,152.037 189.559,143.004"/>
<polygon fill="#00280a" points="188.625,151.364 174.941,135.233 175.293,144.04"/>
<polygon fill="#00ae2b" points="195.021,139.896 180.287,132.239 190.928,142.226"/>
<polygon fill="#00ae2b" points="190.928,142.226 180.287,132.239 174.941,135.233"/>
<polygon fill="#00ae2b" points="190.928,142.226 174.941,135.233 189.559,143.004"/>
<polygon fill="#00a028" points="216.973,137.307 201.857,129.853 213.067,136.66"/>
<polygon fill="#00a028" points="213.067,136.66 201.857,129.853 196.721,128.978"/>
<polygon fill="#00a028" points="213.067,136.66 196.721,128.978 211.758,136.443"/>
<polygon fill="#280500" points="114.482,270.468 108.225,261.011 99.9053,253.388"/>
<polygon fill="#280500" points="114.482,270.468 99.9053,253.388 106.121,262.733"/>
<polygon fill="#280500" points="91.772,275.778 89.0195,263.833 80.9673,256.042"/>
<polygon fill="#280500" points="91.772,275.778 80.9673,256.042 83.7285,267.811"/>
<polygon fill="#320600" points="70.2089,266.108 70.7378,260.411 62.9277,252.563"/>
<polygon fill="#320600" points="70.2089,266.108 62.9277,252.563 65.683,261.486"/>
<polygon fill="#320600" points="65.683,261.486 62.9277,252.563 62.4273,258.161"/>
<polygon fill="#280500" points="44.1479,235.585 42.2578,231.067 34.7681,223.556"/>
<polygon fill="#280500" points="44.1479,235.585 34.7681,223.556 36.6445,228.005"/>
<polygon fill="#5b0b00" points="52.9136,256.538 48.5147,251.948 49.8022,264.37"/>
<polygon fill="#5b0b00" points="48.5147,251.948 45.35,248.646 42.3125,256.325"/>
<polygon fill="#5b0b00" points="48.5147,251.948 42.3125,256.325 49.8022,264.37"/>
<polygon fill="#801000" points="40.2197,240.805 44.1479,235.585 36.6445,228.005"/>
<polygon fill="#801000" points="40.2197,240.805 36.6445,228.005 35.8995,236.328"/>
<polygon fill="#801000" points="35.8995,236.328 36.6445,228.005 32.7947,233.11"/>
<polygon fill="#460800" points="38.9609,216.215 38.6909,210.94 31.1895,203.773"/>
<polygon fill="#460800" points="38.9609,216.215 31.1895,203.773 31.4727,208.953"/>
<polygon fill="#280500" points="38.0405,252.633 34.8613,247.925 27.543,240.073"/>
<polygon fill="#280500" points="38.0405,252.633 27.543,240.073 30.689,244.717"/>
<polygon fill="#801000" points="40.2197,240.805 35.8995,236.328 34.8613,247.925"/>
<polygon fill="#801000" points="35.8995,236.328 32.7947,233.11 27.543,240.073"/>
<polygon fill="#801000" points="35.8995,236.328 27.543,240.073 34.8613,247.925"/>
<polygon fill="#9b1300" points="33.7215,220.282 38.9609,216.215 31.4727,208.953"/>
<polygon fill="#9b1300" points="33.7215,220.282 31.4727,208.953 29.4205,215.996"/>
<polygon fill="#9b1300" points="29.4205,215.996 31.4727,208.953 26.3297,212.917"/>
<polygon fill="#6d0d00" points="41.5153,190.551 35.7709,185.44 40.4419,194.646"/>
<polygon fill="#6d0d00" points="35.7709,185.44 33.9,183.775 32.8574,187.788"/>
<polygon fill="#6d0d00" points="35.7709,185.44 32.8574,187.788 40.4419,194.646"/>
<polygon fill="#280500" points="27.9233,231.788 26.5503,225.848 19.291,218.342"/>
<polygon fill="#280500" points="27.9233,231.788 19.291,218.342 20.6616,224.182"/>
<polygon fill="#9b1300" points="33.7215,220.282 29.4205,215.996 26.5503,225.848"/>
<polygon fill="#9b1300" points="29.4205,215.996 26.3297,212.917 19.291,218.342"/>
<polygon fill="#9b1300" points="29.4205,215.996 19.291,218.342 26.5503,225.848"/>
<polygon fill="#460800" points="25.4585,206.892 26.1289,200.341 18.7939,193.303"/>
<polygon fill="#460800" points="25.4585,206.892 18.7939,193.303 18.1558,199.728"/>
<polygon fill="#ac1500" points="26.1289,200.341 40.4419,194.646 32.8574,187.788"/>
<polygon fill="#ac1500" points="26.1289,200.341 32.8574,187.788 18.7939,193.303"/>
<polygon fill="#ae1500" points="155.45,152.404 167.782,148.275 158.224,142.858"/>
<polygon fill="#ae1500" points="155.45,152.404 158.224,142.858 146.063,146.859"/>
<polygon fill="#9f1300" points="142.679,139.752 154.234,131.69 144.77,126.507"/>
<polygon fill="#9f1300" points="142.679,139.752 144.77,126.507 133.399,134.376"/>
<polygon fill="#861000" points="125.696,132.557 135.228,121.109 125.968,116.042"/>
<polygon fill="#861000" points="125.696,132.557 125.968,116.042 116.614,127.24"/>
<polygon fill="#630c00" points="107.153,129.362 105.55,128.395 106.025,131.828"/>
<polygon fill="#630c00" points="105.55,128.395 98.318,124.028 97.2163,126.443"/>
<polygon fill="#630c00" points="105.55,128.395 97.2163,126.443 106.025,131.828"/>
<polygon fill="#3a0700" points="84.4922,134.303 85.6396,137.949 86.034,135.306"/>
<polygon fill="#3a0700" points="77.5325,129.773 77.1543,132.364 77.8913,130.006"/>
<polygon fill="#3a0700" points="77.8913,130.006 77.1543,132.364 85.6396,137.949"/>
<polygon fill="#3a0700" points="77.8913,130.006 85.6396,137.949 84.4922,134.303"/>
<polygon fill="#280500" points="64.871,146.909 66.769,150.506 66.3499,147.971"/>
<polygon fill="#280500" points="58.1958,142.113 58.6177,144.602 58.54,142.361"/>
<polygon fill="#280500" points="58.54,142.361 58.6177,144.602 66.769,150.506"/>
<polygon fill="#280500" points="58.54,142.361 66.769,150.506 64.871,146.909"/>
<polygon fill="#280500" points="48.9561,164.964 51.5894,168.243 50.378,166.102"/>
<polygon fill="#280500" points="42.5386,159.828 43.7383,161.934 42.8696,160.093"/>
<polygon fill="#280500" points="42.8696,160.093 43.7383,161.934 51.5894,168.243"/>
<polygon fill="#280500" points="42.8696,160.093 51.5894,168.243 48.9561,164.964"/>
<polygon fill="#6d0d00" points="41.5153,190.551 41.873,189.187 34.2476,182.437"/>
<polygon fill="#6d0d00" points="41.5153,190.551 34.2476,182.437 35.7709,185.44"/>
<polygon fill="#6d0d00" points="35.7709,185.44 34.2476,182.437 33.9,183.775"/>
<polygon fill="#8e1100" points="48.5928,173.267 51.5894,168.243 43.7383,161.934"/>
<polygon fill="#8e1100" points="48.5928,173.267 43.7383,161.934 40.8062,166.849"/>
<polygon fill="#af1500" points="42.417,173.677 48.5928,173.267 40.8062,166.849"/>
<polygon fill="#af1500" points="42.417,173.677 40.8062,166.849 37.9448,169.921"/>
<polygon fill="#af1500" points="37.9448,169.921 40.8062,166.849 34.7305,167.222"/>
<polygon fill="#a51400" points="62.5493,154.521 66.769,150.506 58.6177,144.602"/>
<polygon fill="#a51400" points="62.5493,154.521 58.6177,144.602 54.478,148.522"/>
<polygon fill="#280500" points="39.7731,153.531 48.9561,164.964 50.378,166.102"/>
<polygon fill="#280500" points="39.7731,153.531 50.378,166.102 46.0779,158.504"/>
<polygon fill="#280500" points="38.2808,152.354 42.5386,159.828 42.8696,160.093"/>
<polygon fill="#280500" points="38.2808,152.354 42.8696,160.093 39.7731,153.531"/>
<polygon fill="#280500" points="42.8696,160.093 48.9561,164.964 39.7731,153.531"/>
<polygon fill="#6d0d00" points="31.2266,180.654 33.9214,174.242 26.374,167.734"/>
<polygon fill="#6d0d00" points="31.2266,180.654 26.374,167.734 23.7446,174.012"/>
<polygon fill="#af1500" points="42.417,173.677 37.9448,169.921 33.9214,174.242"/>
<polygon fill="#af1500" points="37.9448,169.921 34.7305,167.222 26.374,167.734"/>
<polygon fill="#af1500" points="37.9448,169.921 26.374,167.734 33.9214,174.242"/>
<polygon fill="#a61400" points="56.914,152.874 62.5493,154.521 54.478,148.522"/>
<polygon fill="#a61400" points="56.914,152.874 54.478,148.522 52.2659,149.387"/>
<polygon fill="#a61400" points="52.2659,149.387 54.478,148.522 48.925,146.881"/>
<polygon fill="#af1500" points="80.6914,140.52 85.6396,137.949 77.1543,132.364"/>
<polygon fill="#af1500" points="80.6914,140.52 77.1543,132.364 72.29,134.866"/>
<polygon fill="#280500" points="58.2637,134.386 64.871,146.909 66.3499,147.971"/>
<polygon fill="#280500" points="58.2637,134.386 66.3499,147.971 64.8649,138.989"/>
<polygon fill="#280500" points="56.7013,133.296 58.1958,142.113 58.54,142.361"/>
<polygon fill="#280500" points="56.7013,133.296 58.54,142.361 58.2637,134.386"/>
<polygon fill="#280500" points="58.54,142.361 64.871,146.909 58.2637,134.386"/>
<polygon fill="#280500" points="46.0779,158.504 44.73,156.122 36.9463,150.012"/>
<polygon fill="#280500" points="46.0779,158.504 36.9463,150.012 39.7731,153.531"/>
<polygon fill="#280500" points="39.7731,153.531 36.9463,150.012 38.2808,152.354"/>
<polygon fill="#8e1100" points="44.73,156.122 49.1514,150.604 41.2778,144.62"/>
<polygon fill="#8e1100" points="44.73,156.122 41.2778,144.62 36.9463,150.012"/>
<polygon fill="#a61400" points="56.914,152.874 52.2659,149.387 49.1514,150.604"/>
<polygon fill="#a61400" points="52.2659,149.387 48.925,146.881 41.2778,144.62"/>
<polygon fill="#a61400" points="52.2659,149.387 41.2778,144.62 49.1514,150.604"/>
<polygon fill="#ad1500" points="100.911,132.718 106.025,131.828 97.2163,126.443"/>
<polygon fill="#ad1500" points="100.911,132.718 97.2163,126.443 92.1797,127.295"/>
<polygon fill="#3030f1" points="97.2816,126.687 97.6211,127.669 99.9635,127.151"/>
<polygon fill="#3a0700" points="80.5068,121.637 84.4922,134.303 86.034,135.306"/>
<polygon fill="#3a0700" points="80.5068,121.637 86.034,135.306 87.4277,125.964"/>
<polygon fill="#3a0700" points="78.8694,120.614 77.5325,129.773 77.8913,130.006"/>
<polygon fill="#3a0700" points="78.8694,120.614 77.8913,130.006 80.5068,121.637"/>
<polygon fill="#3a0700" points="77.8913,130.006 84.4922,134.303 80.5068,121.637"/>
<polygon fill="#3030f1" points="76.6598,124.583 78.2529,125.393 76.671,124.576"/>
<polygon fill="#3030f1" points="76.671,124.576 78.2529,125.393 78.0633,123.588"/>
<polygon fill="#3030f1" points="78.0633,123.588 78.2529,125.393 79.7962,123.66"/>
<polygon fill="#3030f1" points="78.0633,123.588 79.7962,123.66 78.3225,123.405"/>
<polygon fill="#280500" points="64.8649,138.989 64.4004,136.18 56.2339,130.539"/>
<polygon fill="#280500" points="64.8649,138.989 56.2339,130.539 58.2637,134.386"/>
<polygon fill="#280500" points="58.2637,134.386 56.2339,130.539 56.7013,133.296"/>
<polygon fill="#a51400" points="64.4004,136.18 70.0151,132.192 61.7466,126.651"/>
<polygon fill="#a51400" points="64.4004,136.18 61.7466,126.651 56.2339,130.539"/>
<polygon fill="#12125e" points="72.4287,122.384 72.4161,122.376 72.417,122.428"/>
<polygon fill="#12125e" points="72.4161,122.376 68.2439,119.705 68.2324,119.749"/>
<polygon fill="#12125e" points="72.4161,122.376 68.2324,119.749 72.417,122.428"/>
<polygon fill="#3030f1" points="72.417,122.428 76.6598,124.583 76.671,124.576"/>
<polygon fill="#3030f1" points="72.417,122.428 76.671,124.576 72.4287,122.384"/>
<polygon fill="#3030f1" points="76.671,124.576 78.0633,123.588 78.0388,123.356"/>
<polygon fill="#3030f1" points="76.671,124.576 78.0388,123.356 72.4287,122.384"/>
<polygon fill="#3030f1" points="78.0633,123.588 78.3225,123.405 78.0388,123.356"/>
<polygon fill="#9d1300" points="120.96,131.741 125.696,132.557 116.614,127.24"/>
<polygon fill="#630c00" points="107.153,129.362 112.361,117.973 103.406,112.874"/>
<polygon fill="#630c00" points="107.153,129.362 103.406,112.874 105.55,128.395"/>
<polygon fill="#630c00" points="105.55,128.395 103.406,112.874 98.318,124.028"/>
<polygon fill="#0a0a33" points="91.6898,117.06 97.2816,126.687 94.5419,118.76"/>
<polygon fill="#0a0a33" points="91.5761,116.992 96.9502,126.484 91.6197,117.018"/>
<polygon fill="#0a0a33" points="91.6197,117.018 96.9502,126.484 97.2816,126.687"/>
<polygon fill="#0a0a33" points="91.6197,117.018 97.2816,126.687 91.6898,117.06"/>
<polygon fill="#0a0a33" points="90.1819,116.16 92.9174,124.017 90.7158,116.479"/>
<polygon fill="#0a0a33" points="90.7158,116.479 92.9174,124.017 96.9502,126.484"/>
<polygon fill="#0a0a33" points="90.7158,116.479 96.9502,126.484 91.5761,116.992"/>
<polygon fill="#3030f1" points="97.2816,126.687 99.9635,127.151 104.177,126.219"/>
<polygon fill="#3030f1" points="96.497,118.11 95.7178,118.369 104.177,126.219"/>
<polygon fill="#3030f1" points="95.7178,118.369 94.5419,118.76 97.2816,126.687"/>
<polygon fill="#3030f1" points="95.7178,118.369 97.2816,126.687 104.177,126.219"/>
<polygon fill="#3030f1" points="96.497,118.11 104.177,126.219 105.934,116.652"/>
<polygon fill="#3030f1" points="96.497,118.11 105.934,116.652 100.973,116.622"/>
<polygon fill="#3a0700" points="87.4277,125.964 87.8623,123.051 79.2861,117.758"/>
<polygon fill="#3a0700" points="87.4277,125.964 79.2861,117.758 80.5068,121.637"/>
<polygon fill="#af1500" points="87.8623,123.051 93.9985,121.002 85.3232,115.773"/>
<polygon fill="#af1500" points="87.8623,123.051 85.3232,115.773 79.2861,117.758"/>
<polygon fill="#0a0a33" points="90.164,114.433 91.6898,117.06 94.5419,118.76"/>
<polygon fill="#0a0a33" points="90.164,114.433 94.5419,118.76 93.7876,116.578"/>
<polygon fill="#0a0a33" points="90.1087,114.4 91.5761,116.992 91.6197,117.018"/>
<polygon fill="#0a0a33" points="90.1087,114.4 91.6197,117.018 90.164,114.433"/>
<polygon fill="#0a0a33" points="91.6197,117.018 91.6898,117.06 90.164,114.433"/>
<polygon fill="#0a0a33" points="89.4289,113.997 90.1819,116.16 90.7158,116.479"/>
<polygon fill="#0a0a33" points="89.4289,113.997 90.7158,116.479 90.1087,114.4"/>
<polygon fill="#0a0a33" points="90.7158,116.479 91.5761,116.992 90.1087,114.4"/>
<polygon fill="#12125e" points="74.0053,116.458 72.3099,115.403 72.4287,122.384"/>
<polygon fill="#12125e" points="72.3099,115.403 72.3024,115.398 72.4161,122.376"/>
<polygon fill="#12125e" points="72.3099,115.403 72.4161,122.376 72.4287,122.384"/>
<polygon fill="#12125e" points="72.3024,115.398 69.7972,113.839 68.2439,119.705"/>
<polygon fill="#12125e" points="72.3024,115.398 68.2439,119.705 72.4161,122.376"/>
<polygon fill="#3030f1" points="78.0388,123.356 77.3157,116.478 74.0053,116.458"/>
<polygon fill="#3030f1" points="78.0388,123.356 74.0053,116.458 72.4287,122.384"/>
<polygon fill="#3030f1" points="79.7962,123.66 86.1449,116.532 85.5842,116.528"/>
<polygon fill="#3030f1" points="79.7962,123.66 85.5842,116.528 78.0388,123.356"/>
<polygon fill="#3030f1" points="85.5842,116.528 77.3157,116.478 78.0388,123.356"/>
<polygon fill="#3030f1" points="96.497,118.11 95.0533,116.586 93.7876,116.578"/>
<polygon fill="#3030f1" points="96.497,118.11 93.7876,116.578 95.7178,118.369"/>
<polygon fill="#3030f1" points="95.7178,118.369 93.7876,116.578 94.5419,118.76"/>
<polygon fill="#3030f1" points="96.497,118.11 100.973,116.622 95.0533,116.586"/>
<polygon fill="#ad1500" points="112.361,117.973 118.328,118.003 109.288,112.926"/>
<polygon fill="#ad1500" points="112.361,117.973 109.288,112.926 103.406,112.874"/>
<polygon fill="#0a0a33" points="121.104,115.293 120.69,115.064 122.079,115.895"/>
<polygon fill="#0a0a33" points="120.69,115.064 116.546,112.778 117.515,113.376"/>
<polygon fill="#0a0a33" points="120.69,115.064 117.515,113.376 122.079,115.895"/>
<polygon fill="#2929cd" points="85.7755,103.504 87.0941,104.257 89.7197,105.175"/>
<polygon fill="#2929cd" points="87.0941,104.257 90.1279,105.99 94.0977,107.669"/>
<polygon fill="#2929cd" points="87.0941,104.257 94.0977,107.669 89.7197,105.175"/>
<polygon fill="#2a2ad5" points="93.776,104 89.7197,105.175 94.0977,107.669"/>
<polygon fill="#2a2ad5" points="93.776,104 94.0977,107.669 96.9238,105.766"/>
<polygon fill="#2a2ad5" points="96.9238,105.766 94.0977,107.669 98.1874,106.475"/>
<polygon fill="#0a0a33" points="93.7876,116.578 93.0645,114.486 88.707,111.924"/>
<polygon fill="#0a0a33" points="93.7876,116.578 88.707,111.924 90.164,114.433"/>
<polygon fill="#0a0a33" points="90.164,114.433 88.707,111.924 90.1087,114.4"/>
<polygon fill="#0a0a33" points="90.1087,114.4 88.707,111.924 89.4289,113.997"/>
<polygon fill="#2929cd" points="85.7755,103.504 76.6875,99.6548 80.9771,102.119"/>
<polygon fill="#2929cd" points="85.7755,103.504 80.9771,102.119 87.0941,104.257"/>
<polygon fill="#2929cd" points="87.0941,104.257 80.9771,102.119 90.1279,105.99"/>
<polygon fill="#0a0a33" points="76.3765,107.544 73.2227,104.037 68.9976,101.539"/>
<polygon fill="#0a0a33" points="76.3765,107.544 68.9976,101.539 72.1333,105.018"/>
<polygon fill="#12125e" points="74.0053,116.458 76.3765,107.544 72.1333,105.018"/>
<polygon fill="#12125e" points="74.0053,116.458 72.1333,105.018 72.3099,115.403"/>
<polygon fill="#12125e" points="72.3099,115.403 72.1333,105.018 72.3024,115.398"/>
<polygon fill="#12125e" points="72.3024,115.398 72.1333,105.018 69.7972,113.839"/>
<polygon fill="#0a0a33" points="58.8608,107.68 56.083,101.179 51.9897,98.6787"/>
<polygon fill="#0a0a33" points="58.8608,107.68 51.9897,98.6787 54.7563,105.119"/>
<polygon fill="#2424b6" points="64.374,93.4635 61.3601,91.7248 56.083,101.179"/>
<polygon fill="#2424b6" points="61.3601,91.7248 60.1996,91.0553 51.9897,98.6787"/>
<polygon fill="#2424b6" points="61.3601,91.7248 51.9897,98.6787 56.083,101.179"/>
<polygon fill="#3030f1" points="69.6803,95.5053 73.2227,104.037 73.6382,97.0283"/>
<polygon fill="#3030f1" points="79.544,99.3008 73.6382,97.0283 73.2227,104.037"/>
<polygon fill="#3030f1" points="79.544,99.3008 73.2227,104.037 80.9771,102.119"/>
<polygon fill="#3030f1" points="80.9771,102.119 73.2227,104.037 76.3765,107.544"/>
<polygon fill="#3030f1" points="80.9771,102.119 76.3765,107.544 88.4883,113.9"/>
<polygon fill="#3030f1" points="94.0977,107.669 80.9771,102.119 88.4883,113.9"/>
<polygon fill="#3030f1" points="94.0977,107.669 88.4883,113.9 93.0645,114.486"/>
<polygon fill="#3030f1" points="94.0977,107.669 93.0645,114.486 106.868,111.566"/>
<polygon fill="#3030f1" points="98.1874,106.475 94.0977,107.669 106.868,111.566"/>
<polygon fill="#3030f1" points="98.1874,106.475 106.868,111.566 107.176,109.933"/>
<polygon fill="#3030f1" points="107.176,109.933 106.868,111.566 108.702,110.521"/>
<polygon fill="#3030f1" points="121.104,115.293 122.079,115.895 122.238,115.729"/>
<polygon fill="#3030f1" points="64.374,93.4635 56.083,101.179 58.8608,107.68"/>
<polygon fill="#3030f1" points="64.374,93.4635 58.8608,107.68 65.7946,94.0101"/>
<polygon fill="#3030f1" points="65.7946,94.0101 58.8608,107.68 73.2227,104.037"/>
<polygon fill="#3030f1" points="65.7946,94.0101 73.2227,104.037 69.6803,95.5053"/>
<polygon fill="#3030f1" points="77.3157,116.478 76.3765,107.544 74.0053,116.458"/>
<polygon fill="#3030f1" points="86.1449,116.532 88.4883,113.9 85.5842,116.528"/>
<polygon fill="#3030f1" points="85.5842,116.528 88.4883,113.9 76.3765,107.544"/>
<polygon fill="#3030f1" points="85.5842,116.528 76.3765,107.544 77.3157,116.478"/>
<polygon fill="#3030f1" points="95.0533,116.586 93.0645,114.486 93.7876,116.578"/>
<polygon fill="#3030f1" points="95.0533,116.586 105.934,116.652 106.868,111.566"/>
<polygon fill="#3030f1" points="95.0533,116.586 106.868,111.566 93.0645,114.486"/>
<polygon fill="#9d1300" points="135.228,121.109 140.416,123.104 131.094,118.02"/>
<polygon fill="#9d1300" points="135.228,121.109 131.094,118.02 125.968,116.042"/>
<polygon fill="#18187c" points="114.037,89.0542 103.902,101.066 108.394,103.494"/>
<polygon fill="#18187c" points="114.037,89.0542 108.394,103.494 118.628,91.3452"/>
<polygon fill="#0a0a33" points="116.479,73.5361 114.037,89.0542 118.628,91.3452"/>
<polygon fill="#0a0a33" points="116.479,73.5361 118.628,91.3452 121.121,75.6709"/>
<polygon fill="#0a0a33" points="110.246,60.2071 116.479,73.5361 121.121,75.6709"/>
<polygon fill="#0a0a33" points="110.246,60.2071 121.121,75.6709 110.261,60.2136"/>
<polygon fill="#0a0a33" points="110.261,60.2136 121.121,75.6709 114.87,62.2191"/>
<polygon fill="#2929cd" points="100.95,103.054 103.902,101.066 99.5999,102.313"/>
<polygon fill="#2929cd" points="104.058,104.76 108.394,103.494 103.512,104.461"/>
<polygon fill="#2929cd" points="103.512,104.461 108.394,103.494 103.902,101.066"/>
<polygon fill="#2929cd" points="103.512,104.461 103.902,101.066 100.95,103.054"/>
<polygon fill="#2b2bda" points="122.3,60.4873 135.721,57.3594 130.936,55.4268"/>
<polygon fill="#2b2bda" points="122.3,60.4873 130.936,55.4268 117.618,58.5039"/>
<polygon fill="#0a0a33" points="110.246,60.2071 110.261,60.2136 110.225,60.1626"/>
<polygon fill="#0a0a33" points="110.261,60.2136 114.87,62.2191 114.85,62.1743"/>
<polygon fill="#0a0a33" points="110.261,60.2136 114.85,62.1743 110.225,60.1626"/>
<polygon fill="#0a0a33" points="97.4313,54.0728 110.225,60.1626 114.85,62.1743"/>
<polygon fill="#0a0a33" points="97.4462,54.0792 114.85,62.1743 101.972,56.0421"/>
<polygon fill="#2222ab" points="107.607,49.7769 117.885,38.3496 113.189,36.5825"/>
<polygon fill="#2222ab" points="107.607,49.7769 113.189,36.5825 103.011,47.8794"/>
<polygon fill="#0f0f4e" points="89.5695,46.4618 88.1685,45.8689 88.7188,51.3379"/>
<polygon fill="#0f0f4e" points="88.1685,45.8689 85.1061,44.5729 84.2715,49.3975"/>
<polygon fill="#0f0f4e" points="88.1685,45.8689 84.2715,49.3975 88.7188,51.3379"/>
<polygon fill="#0a0a33" points="71.1333,60.7268 69.7866,60.0791 73.0977,64.98"/>
<polygon fill="#0a0a33" points="69.7866,60.0791 66.844,58.6638 68.8003,62.876"/>
<polygon fill="#0a0a33" points="69.7866,60.0791 68.8003,62.876 73.0977,64.98"/>
<polygon fill="#2727c7" points="70.5303,69.7378 73.0977,64.98 68.8003,62.876"/>
<polygon fill="#2727c7" points="70.5303,69.7378 68.8003,62.876 66.2627,67.5811"/>
<polygon fill="#18187c" points="55.141,74.535 55.7607,71.606 51.6172,69.4067"/>
<polygon fill="#18187c" points="55.141,74.535 51.6172,69.4067 52.5998,73.1634"/>
<polygon fill="#18187c" points="52.5998,73.1634 51.6172,69.4067 51.0079,72.3042"/>
<polygon fill="#2c2cdc" points="55.7607,71.606 70.5303,69.7378 66.2627,67.5811"/>
<polygon fill="#2c2cdc" points="55.7607,71.606 66.2627,67.5811 51.6172,69.4067"/>
<polygon fill="#2b2bda" points="84.21,53.7451 88.7188,51.3379 84.2715,49.3975"/>
<polygon fill="#2b2bda" points="84.21,53.7451 84.2715,49.3975 79.8027,51.7734"/>
<polygon fill="#0a0a33" points="71.1333,60.7268 66.7461,51.2275 62.4751,49.2568"/>
<polygon fill="#0a0a33" points="71.1333,60.7268 62.4751,49.2568 69.7866,60.0791"/>
<polygon fill="#0a0a33" points="69.7866,60.0791 62.4751,49.2568 66.844,58.6638"/>
<polygon fill="#2727c7" points="66.7461,51.2275 72.1416,45.8047 67.8164,43.8984"/>
<polygon fill="#2727c7" points="66.7461,51.2275 67.8164,43.8984 62.4751,49.2568"/>
<polygon fill="#2222ad" points="103.003,48.9307 107.607,49.7769 103.011,47.8794"/>
<polygon fill="#2222ad" points="103.003,48.9307 103.011,47.8794 98.4404,47.0352"/>
<polygon fill="#0f0f4e" points="89.5695,46.4618 91.4595,35.6299 86.96,33.856"/>
<polygon fill="#0f0f4e" points="89.5695,46.4618 86.96,33.856 88.1685,45.8689"/>
<polygon fill="#0f0f4e" points="88.1685,45.8689 86.96,33.856 85.1061,44.5729"/>
<polygon fill="#2b2bda" points="91.4595,35.6299 98.3521,34.5391 93.7969,32.7856"/>
<polygon fill="#2b2bda" points="91.4595,35.6299 93.7969,32.7856 86.96,33.856"/>
<polygon fill="#0a0a33" points="121.104,115.293 111.136,109.133 106.636,106.658"/>
<polygon fill="#0a0a33" points="121.104,115.293 106.636,106.658 120.69,115.064"/>
<polygon fill="#0a0a33" points="120.69,115.064 106.636,106.658 116.546,112.778"/>
<polygon fill="#2a2ad5" points="96.9238,105.766 100.95,103.054 99.5999,102.313"/>
<polygon fill="#2a2ad5" points="96.9238,105.766 99.5999,102.313 93.776,104"/>
<polygon fill="#2a2ad5" points="98.1874,106.475 104.058,104.76 103.512,104.461"/>
<polygon fill="#2a2ad5" points="98.1874,106.475 103.512,104.461 96.9238,105.766"/>
<polygon fill="#2929cd" points="103.512,104.461 100.95,103.054 96.9238,105.766"/>
<polygon fill="#18187c" points="67.5898,90.4707 67.1729,85.3076 62.9609,82.9868"/>
<polygon fill="#18187c" points="67.5898,90.4707 62.9609,82.9868 63.3843,88.0981"/>
<polygon fill="#2424b6" points="64.374,93.4635 67.5898,90.4707 63.3843,88.0981"/>
<polygon fill="#2424b6" points="64.374,93.4635 63.3843,88.0981 61.3601,91.7248"/>
<polygon fill="#2424b6" points="61.3601,91.7248 63.3843,88.0981 60.1996,91.0553"/>
<polygon fill="#18187c" points="55.141,74.535 52.5998,73.1634 54.165,79.1475"/>
<polygon fill="#18187c" points="52.5998,73.1634 51.0079,72.3042 50.0483,76.8677"/>
<polygon fill="#18187c" points="52.5998,73.1634 50.0483,76.8677 54.165,79.1475"/>
<polygon fill="#3030f1" points="108.394,103.494 111.136,109.133 121.601,98.293"/>
<polygon fill="#3030f1" points="118.628,91.3452 108.394,103.494 121.601,98.293"/>
<polygon fill="#3030f1" points="118.628,91.3452 121.601,98.293 124.048,93.7798"/>
<polygon fill="#3030f1" points="118.628,91.3452 124.048,93.7798 127.487,78.9668"/>
<polygon fill="#3030f1" points="121.121,75.6709 118.628,91.3452 127.487,78.9668"/>
<polygon fill="#3030f1" points="121.121,75.6709 127.487,78.9668 127.235,73.9805"/>
<polygon fill="#3030f1" points="121.121,75.6709 127.235,73.9805 122.3,60.4873"/>
<polygon fill="#3030f1" points="114.85,62.1743 121.121,75.6709 122.3,60.4873"/>
<polygon fill="#3030f1" points="114.85,62.1743 122.3,60.4873 119.369,56.8442"/>
<polygon fill="#3030f1" points="114.85,62.1743 119.369,56.8442 107.607,49.7769"/>
<polygon fill="#3030f1" points="101.928,56.0215 114.85,62.1743 107.607,49.7769"/>
<polygon fill="#3030f1" points="101.928,56.0215 107.607,49.7769 103.003,48.9307"/>
<polygon fill="#3030f1" points="101.928,56.0215 103.003,48.9307 88.7188,51.3379"/>
<polygon fill="#3030f1" points="87.1841,59.8628 101.928,56.0215 88.7188,51.3379"/>
<polygon fill="#3030f1" points="87.1841,59.8628 88.7188,51.3379 84.21,53.7451"/>
<polygon fill="#3030f1" points="87.1841,59.8628 84.21,53.7451 73.0977,64.98"/>
<polygon fill="#3030f1" points="76.4731,72.4077 87.1841,59.8628 73.0977,64.98"/>
<polygon fill="#3030f1" points="76.4731,72.4077 73.0977,64.98 70.5303,69.7378"/>
<polygon fill="#3030f1" points="76.4731,72.4077 70.5303,69.7378 67.1729,85.3076"/>
<polygon fill="#3030f1" points="74.1343,88.6616 76.4731,72.4077 67.1729,85.3076"/>
<polygon fill="#3030f1" points="74.1343,88.6616 67.1729,85.3076 67.5898,90.4707"/>
<polygon fill="#3030f1" points="67.5898,90.4707 69.6803,95.5053 73.6382,97.0283"/>
<polygon fill="#3030f1" points="67.5898,90.4707 73.6382,97.0283 74.1343,88.6616"/>
<polygon fill="#3030f1" points="79.544,99.3008 74.1343,88.6616 73.6382,97.0283"/>
<polygon fill="#3030f1" points="98.1874,106.475 107.176,109.933 108.394,103.494"/>
<polygon fill="#3030f1" points="107.176,109.933 108.702,110.521 111.136,109.133"/>
<polygon fill="#3030f1" points="107.176,109.933 111.136,109.133 108.394,103.494"/>
<polygon fill="#3030f1" points="121.104,115.293 122.238,115.729 127.022,110.748"/>
<polygon fill="#3030f1" points="121.104,115.293 127.022,110.748 111.136,109.133"/>
<polygon fill="#3030f1" points="111.136,109.133 127.022,110.748 121.601,98.293"/>
<polygon fill="#3030f1" points="124.048,93.7798 137.297,91.813 138.951,84.8008"/>
<polygon fill="#3030f1" points="124.048,93.7798 138.951,84.8008 127.487,78.9668"/>
<polygon fill="#3030f1" points="127.235,73.9805 138.011,63.8091 135.721,57.3594"/>
<polygon fill="#3030f1" points="127.235,73.9805 135.721,57.3594 122.3,60.4873"/>
<polygon fill="#3030f1" points="119.369,56.8442 123.477,41.811 117.885,38.3496"/>
<polygon fill="#3030f1" points="119.369,56.8442 117.885,38.3496 107.607,49.7769"/>
<polygon fill="#3030f1" points="103.003,48.9307 98.3521,34.5391 91.4595,35.6299"/>
<polygon fill="#3030f1" points="103.003,48.9307 91.4595,35.6299 88.7188,51.3379"/>
<polygon fill="#3030f1" points="84.21,53.7451 72.1416,45.8047 66.7461,51.2275"/>
<polygon fill="#3030f1" points="84.21,53.7451 66.7461,51.2275 73.0977,64.98"/>
<polygon fill="#3030f1" points="70.5303,69.7378 55.7607,71.606 54.165,79.1475"/>
<polygon fill="#3030f1" points="70.5303,69.7378 54.165,79.1475 67.1729,85.3076"/>
<polygon fill="#3030f1" points="64.374,93.4635 65.7946,94.0101 67.5898,90.4707"/>
<polygon fill="#3030f1" points="65.7946,94.0101 69.6803,95.5053 67.5898,90.4707"/>
<polygon fill="#c11800" points="120.639,189.391 161.653,164.623 155.45,152.404"/>
<polygon fill="#c11800" points="117.991,185.114 120.639,189.391 155.45,152.404"/>
<polygon fill="#c11800" points="117.991,185.114 155.45,152.404 152.715,148.802"/>
<polygon fill="#c11800" points="117.991,185.114 152.715,148.802 142.679,139.752"/>
<polygon fill="#c11800" points="114.016,182.162 117.991,185.114 142.679,139.752"/>
<polygon fill="#c11800" points="114.016,182.162 142.679,139.752 138.777,137.394"/>
<polygon fill="#c11800" points="114.016,182.162 138.777,137.394 125.696,132.557"/>
<polygon fill="#c11800" points="109.087,180.841 114.016,182.162 125.696,132.557"/>
<polygon fill="#c11800" points="109.087,180.841 125.696,132.557 120.96,131.741"/>
<polygon fill="#c11800" points="109.087,180.841 120.96,131.741 106.025,131.828"/>
<polygon fill="#c11800" points="103.681,181.305 109.087,180.841 106.025,131.828"/>
<polygon fill="#c11800" points="103.681,181.305 106.025,131.828 100.911,132.718"/>
<polygon fill="#c11800" points="103.681,181.305 100.911,132.718 85.6396,137.949"/>
<polygon fill="#c11800" points="98.3345,183.528 103.681,181.305 85.6396,137.949"/>
<polygon fill="#c11800" points="98.3345,183.528 85.6396,137.949 80.6914,140.52"/>
<polygon fill="#c11800" points="98.3345,183.528 80.6914,140.52 66.769,150.506"/>
<polygon fill="#c11800" points="93.5918,187.302 98.3345,183.528 66.769,150.506"/>
<polygon fill="#c11800" points="93.5918,187.302 66.769,150.506 62.5493,154.521"/>
<polygon fill="#c11800" points="93.5918,187.302 62.5493,154.521 51.5894,168.243"/>
<polygon fill="#c11800" points="89.9395,192.25 93.5918,187.302 51.5894,168.243"/>
<polygon fill="#c11800" points="89.9395,192.25 51.5894,168.243 48.5928,173.267"/>
<polygon fill="#c11800" points="89.9395,192.25 48.5928,173.267 41.873,189.187"/>
<polygon fill="#c11800" points="87.7529,197.869 89.9395,192.25 41.873,189.187"/>
<polygon fill="#c11800" points="87.7529,197.869 41.873,189.187 40.4419,194.646"/>
<polygon fill="#c11800" points="87.7529,197.869 40.4419,194.646 38.6909,210.94"/>
<polygon fill="#c11800" points="87.251,203.584 87.7529,197.869 38.6909,210.94"/>
<polygon fill="#c11800" points="87.251,203.584 38.6909,210.94 38.9609,216.215"/>
<polygon fill="#c11800" points="87.251,203.584 38.9609,216.215 42.2578,231.067"/>
<polygon fill="#c11800" points="88.4741,208.816 87.251,203.584 42.2578,231.067"/>
<polygon fill="#c11800" points="88.4741,208.816 42.2578,231.067 44.1479,235.585"/>
<polygon fill="#c11800" points="88.4741,208.816 44.1479,235.585 51.9585,247.454"/>
<polygon fill="#c11800" points="91.2812,213.045 88.4741,208.816 51.9585,247.454"/>
<polygon fill="#c11800" points="91.2812,213.045 51.9585,247.454 55.2046,250.771"/>
<polygon fill="#c11800" points="91.2812,213.045 55.2046,250.771 66.5259,258.569"/>
<polygon fill="#c11800" points="95.3755,215.865 91.2812,213.045 66.5259,258.569"/>
<polygon fill="#c11800" points="95.3755,215.865 66.5259,258.569 70.7378,260.411"/>
<polygon fill="#c11800" points="95.3755,215.865 70.7378,260.411 84.2915,263.571"/>
<polygon fill="#c11800" points="100.339,217.019 95.3755,215.865 84.2915,263.571"/>
<polygon fill="#c11800" points="100.339,217.019 84.2915,263.571 89.0195,263.833"/>
<polygon fill="#c11800" points="100.339,217.019 89.0195,263.833 103.435,262.282"/>
<polygon fill="#c11800" points="105.683,216.417 100.339,217.019 103.435,262.282"/>
<polygon fill="#c11800" points="105.683,216.417 103.435,262.282 108.225,261.011"/>
<polygon fill="#c11800" points="105.683,216.417 108.225,261.011 122.18,255.089"/>
<polygon fill="#c11800" points="110.892,214.137 105.683,216.417 122.18,255.089"/>
<polygon fill="#c11800" points="110.892,214.137 122.18,255.089 126.611,252.457"/>
<polygon fill="#c11800" points="110.892,214.137 126.611,252.457 138.923,242.818"/>
<polygon fill="#c11800" points="115.476,210.411 110.892,214.137 138.923,242.818"/>
<polygon fill="#c11800" points="115.476,210.411 138.923,242.818 142.63,239.086"/>
<polygon fill="#c11800" points="115.476,210.411 142.63,239.086 152.301,226.619"/>
<polygon fill="#c11800" points="119.008,205.596 115.476,210.411 152.301,226.619"/>
<polygon fill="#c11800" points="119.008,205.596 152.301,226.619 154.986,222.114"/>
<polygon fill="#c11800" points="119.008,205.596 154.986,222.114 161.233,207.876"/>
<polygon fill="#c11800" points="121.16,200.144 119.008,205.596 161.233,207.876"/>
<polygon fill="#c11800" points="121.16,200.144 161.233,207.876 162.674,202.972"/>
<polygon fill="#c11800" points="121.16,200.144 162.674,202.972 164.948,188.142"/>
<polygon fill="#c11800" points="121.725,194.567 121.16,200.144 164.948,188.142"/>
<polygon fill="#c11800" points="121.725,194.567 164.948,188.142 165.004,183.247"/>
<polygon fill="#c11800" points="121.725,194.567 165.004,183.247 163.026,169.082"/>
<polygon fill="#c11800" points="120.639,189.391 121.725,194.567 163.026,169.082"/>
<polygon fill="#c11800" points="120.639,189.391 163.026,169.082 161.653,164.623"/>
<polygon fill="#c11800" points="161.653,164.623 170.193,153.15 167.782,148.275"/>
<polygon fill="#c11800" points="161.653,164.623 167.782,148.275 155.45,152.404"/>
<polygon fill="#c11800" points="152.715,148.802 158.18,135.34 154.234,131.69"/>
<polygon fill="#c11800" points="152.715,148.802 154.234,131.69 142.679,139.752"/>
<polygon fill="#c11800" points="138.777,137.394 140.416,123.104 135.228,121.109"/>
<polygon fill="#c11800" points="138.777,137.394 135.228,121.109 125.696,132.557"/>
<polygon fill="#c11800" points="120.96,131.741 118.328,118.003 112.361,117.973"/>
<polygon fill="#c11800" points="120.96,131.741 112.361,117.973 106.025,131.828"/>
<polygon fill="#c11800" points="100.911,132.718 93.9985,121.002 87.8623,123.051"/>
<polygon fill="#c11800" points="100.911,132.718 87.8623,123.051 85.6396,137.949"/>
<polygon fill="#c11800" points="80.6914,140.52 70.0151,132.192 64.4004,136.18"/>
<polygon fill="#c11800" points="80.6914,140.52 64.4004,136.18 66.769,150.506"/>
<polygon fill="#c11800" points="62.5493,154.521 49.1514,150.604 44.73,156.122"/>
<polygon fill="#c11800" points="62.5493,154.521 44.73,156.122 51.5894,168.243"/>
<polygon fill="#c11800" points="48.5928,173.267 33.9214,174.242 31.2266,180.654"/>
<polygon fill="#c11800" points="48.5928,173.267 31.2266,180.654 41.873,189.187"/>
<polygon fill="#c11800" points="40.4419,194.646 26.1289,200.341 25.4585,206.892"/>
<polygon fill="#c11800" points="40.4419,194.646 25.4585,206.892 38.6909,210.94"/>
<polygon fill="#c11800" points="38.9609,216.215 26.5503,225.848 27.9233,231.788"/>
<polygon fill="#c11800" points="38.9609,216.215 27.9233,231.788 42.2578,231.067"/>
<polygon fill="#c11800" points="44.1479,235.585 34.8613,247.925 38.0405,252.633"/>
<polygon fill="#c11800" points="44.1479,235.585 38.0405,252.633 51.9585,247.454"/>
<polygon fill="#c11800" points="55.2046,250.771 49.8022,264.37 54.3618,267.423"/>
<polygon fill="#c11800" points="55.2046,250.771 54.3618,267.423 66.5259,258.569"/>
<polygon fill="#c11800" points="70.7378,260.411 69.4927,273.823 74.9058,275.017"/>
<polygon fill="#c11800" points="70.7378,260.411 74.9058,275.017 84.2915,263.571"/>
<polygon fill="#c11800" points="89.0195,263.833 91.772,275.778 97.4902,275.109"/>
<polygon fill="#c11800" points="89.0195,263.833 97.4902,275.109 103.435,262.282"/>
<polygon fill="#c11800" points="108.225,261.011 114.482,270.468 119.99,268.089"/>
<polygon fill="#c11800" points="108.225,261.011 119.99,268.089 122.18,255.089"/>
<polygon fill="#c11800" points="126.611,252.457 135.649,258.688 140.494,254.866"/>
<polygon fill="#c11800" points="126.611,252.457 140.494,254.866 138.923,242.818"/>
<polygon fill="#c11800" points="142.63,239.086 153.574,241.637 157.379,236.719"/>
<polygon fill="#c11800" points="142.63,239.086 157.379,236.719 152.301,226.619"/>
<polygon fill="#c11800" points="154.986,222.114 166.87,220.795 169.339,215.187"/>
<polygon fill="#c11800" points="154.986,222.114 169.339,215.187 161.233,207.876"/>
<polygon fill="#c11800" points="162.674,202.972 174.477,197.851 175.398,192"/>
<polygon fill="#c11800" points="162.674,202.972 175.398,192 164.948,188.142"/>
<polygon fill="#c11800" points="165.004,183.247 175.686,174.65 174.943,169.038"/>
<polygon fill="#c11800" points="165.004,183.247 174.943,169.038 163.026,169.082"/>
<polygon fill="#008922" points="207.455,182.056 212.523,185.039 208.075,180.827"/>
<polygon fill="#00761d" points="208.075,180.827 212.523,185.039 215.032,180.073"/>
<polygon fill="#00761d" points="208.075,180.827 215.032,180.073 209.938,177.137"/>
<polygon fill="#003f0f" points="209.938,177.137 215.032,180.073 209.876,175.885"/>
<polygon fill="#00390e" points="209.876,175.885 215.032,180.073 214.795,175.011"/>
<polygon fill="#00390e" points="209.876,175.885 214.795,175.011 209.689,172.116"/>
<polygon fill="#00280a" points="209.689,172.116 214.795,175.011 208.964,171.313"/>
<polygon fill="#00280a" points="208.964,171.313 214.795,175.011 211.881,171.767"/>
<polygon fill="#00a429" points="199.823,184.944 203.715,187.946 208.212,188.045"/>
<polygon fill="#00a429" points="199.823,184.944 208.212,188.045 203.175,185.026"/>
<polygon fill="#00ae2b" points="203.175,185.026 208.212,188.045 204.246,184.282"/>
<polygon fill="#00a529" points="204.246,184.282 208.212,188.045 212.523,185.039"/>
<polygon fill="#00a529" points="204.246,184.282 212.523,185.039 207.455,182.056"/>
<polygon fill="#00280a" points="177.026,166 172.11,163.087 177.734,169.53"/>
<polygon fill="#00280a" points="177.026,166 177.734,169.53 184.529,174.623"/>
<polygon fill="#00280a" points="177.734,169.53 179.589,171.655 184.529,174.623"/>
<polygon fill="#00280a" points="209.154,206.584 204.16,203.419 208.611,209.953"/>
<polygon fill="#00280a" points="209.154,206.584 208.611,209.953 215.082,215.328"/>
<polygon fill="#00280a" points="208.611,209.953 210.08,212.11 215.082,215.328"/>
<polygon fill="#00280a" points="194.349,206.503 189.433,203.297 188.906,212.753"/>
<polygon fill="#00280a" points="194.349,206.503 188.906,212.753 193.61,219.196"/>
<polygon fill="#00280a" points="188.906,212.753 188.731,215.886 193.61,219.196"/>
<polygon fill="#003f0f" points="183.127,192.268 179.147,192.018 184.334,196.12"/>
<polygon fill="#003f0f" points="179.147,192.018 179.449,192.972 184.334,196.12"/>
<polygon fill="#00280a" points="176.805,208 171.992,204.733 174.493,207.807"/>
<polygon fill="#00280a" points="176.805,208 174.493,207.807 180.145,212.118"/>
<polygon fill="#00280a" points="174.493,207.807 175.322,208.827 180.145,212.118"/>
<polygon fill="#00761d" points="184.334,196.12 179.449,192.972 173.857,201.792"/>
<polygon fill="#00761d" points="184.334,196.12 173.857,201.792 176.805,208"/>
<polygon fill="#00761d" points="173.857,201.792 171.992,204.733 176.805,208"/>
<polygon fill="#008922" points="184.529,174.623 179.589,171.655 178.634,175.016"/>
<polygon fill="#008922" points="184.529,174.623 178.634,175.016 183.237,179.144"/>
<polygon fill="#008922" points="178.634,175.016 178.317,176.134 183.237,179.144"/>
<polygon fill="#003f0f" points="171.555,185.331 166.718,182.239 166.717,186.948"/>
<polygon fill="#003f0f" points="171.555,185.331 166.717,186.948 171.539,191.658"/>
<polygon fill="#003f0f" points="166.717,186.948 166.717,188.513 171.539,191.658"/>
<polygon fill="#00a82a" points="183.237,179.144 178.317,176.134 169.632,180.705"/>
<polygon fill="#00a82a" points="183.237,179.144 169.632,180.705 171.555,185.331"/>
<polygon fill="#00a82a" points="169.632,180.705 166.718,182.239 171.555,185.331"/>
<polygon fill="#008922" points="173.446,160.792 172.971,161.607 174.344,161.318"/>
<polygon fill="#008922" points="174.344,161.318 172.971,161.607 177.026,166"/>
<polygon fill="#008922" points="174.344,161.318 177.026,166 178.376,163.681"/>
<polygon fill="#008922" points="172.971,161.607 172.11,163.087 177.026,166"/>
<polygon fill="#00ad2b" points="242.29,168.639 237.027,165.864 229.171,165.237"/>
<polygon fill="#00ad2b" points="242.29,168.639 229.171,165.237 231.74,167.82"/>
<polygon fill="#00a328" points="235.041,148.08 229.757,145.456 221.803,150.582"/>
<polygon fill="#00a328" points="235.041,148.08 221.803,150.582 224.346,155.007"/>
<polygon fill="#00a328" points="221.803,150.582 219.137,152.301 224.346,155.007"/>
<polygon fill="#006b1a" points="216.971,139.03 211.758,136.443 206.842,145.67"/>
<polygon fill="#006b1a" points="216.971,139.03 206.842,145.67 210.348,151.453"/>
<polygon fill="#006b1a" points="206.842,145.67 205.204,148.744 210.348,151.453"/>
<polygon fill="#00280a" points="189.852,152.037 189.878,152.84 190.262,152.263"/>
<polygon fill="#00280a" points="190.262,152.263 189.878,152.84 195.022,158.904"/>
<polygon fill="#00280a" points="190.262,152.263 195.022,158.904 194.901,154.811"/>
<polygon fill="#00280a" points="189.878,152.84 189.983,156.096 195.022,158.904"/>
<polygon fill="#00ae2b" points="195.022,158.904 189.983,156.096 187.532,158.586"/>
<polygon fill="#00ae2b" points="195.022,158.904 187.532,158.586 191.726,162.262"/>
<polygon fill="#00ae2b" points="187.532,158.586 186.714,159.417 191.726,162.262"/>
<polygon fill="#008922" points="175.556,157.166 173.446,160.792 174.344,161.318"/>
<polygon fill="#008922" points="175.556,157.166 174.344,161.318 180.508,160.019"/>
<polygon fill="#008922" points="174.344,161.318 178.376,163.681 180.508,160.019"/>
<polygon fill="#00aa2a" points="191.726,162.262 186.714,159.417 178.368,157.734"/>
<polygon fill="#00aa2a" points="191.726,162.262 178.368,157.734 180.508,160.019"/>
<polygon fill="#00aa2a" points="178.368,157.734 175.556,157.166 180.508,160.019"/>
<polygon fill="#00a028" points="210.348,151.453 205.204,148.744 202.259,149.376"/>
<polygon fill="#00a028" points="210.348,151.453 202.259,149.376 206.395,152.312"/>
<polygon fill="#00280a" points="189.559,143.004 189.852,152.037 190.262,152.263"/>
<polygon fill="#00280a" points="189.559,143.004 190.262,152.263 194.629,145.7"/>
<polygon fill="#00280a" points="190.262,152.263 194.901,154.811 194.629,145.7"/>
<polygon fill="#00ae2b" points="200.13,142.552 195.021,139.896 190.928,142.226"/>
<polygon fill="#00ae2b" points="200.13,142.552 190.928,142.226 194.629,145.7"/>
<polygon fill="#00ae2b" points="190.928,142.226 189.559,143.004 194.629,145.7"/>
<polygon fill="#00a028" points="222.211,139.891 216.973,137.307 213.067,136.66"/>
<polygon fill="#00a028" points="222.211,139.891 213.067,136.66 216.971,139.03"/>
<polygon fill="#00a028" points="213.067,136.66 211.758,136.443 216.971,139.03"/>
<polygon fill="#00c130" points="212.523,185.039 223.155,196.683 230.039,184.87"/>
<polygon fill="#00c130" points="215.032,180.073 212.523,185.039 230.039,184.87"/>
<polygon fill="#00c130" points="215.032,180.073 230.039,184.87 231.327,180.55"/>
<polygon fill="#00c130" points="215.032,180.073 231.327,180.55 231.74,167.82"/>
<polygon fill="#00c130" points="214.795,175.011 215.032,180.073 231.74,167.82"/>
<polygon fill="#00c130" points="214.795,175.011 231.74,167.82 230.704,163.986"/>
<polygon fill="#00c130" points="214.795,175.011 230.704,163.986 224.346,155.007"/>
<polygon fill="#00c130" points="211.881,171.767 214.795,175.011 224.346,155.007"/>
<polygon fill="#00c130" points="211.881,171.767 224.346,155.007 221.297,153.111"/>
<polygon fill="#00c130" points="211.881,171.767 221.297,153.111 210.348,151.453"/>
<polygon fill="#00c130" points="207.375,171.603 211.881,171.767 210.348,151.453"/>
<polygon fill="#00c130" points="207.375,171.603 210.348,151.453 206.395,152.312"/>
<polygon fill="#00c130" points="207.375,171.603 206.395,152.312 195.022,158.904"/>
<polygon fill="#00c130" points="203.003,174.613 207.375,171.603 195.022,158.904"/>
<polygon fill="#00c130" points="203.003,174.613 195.022,158.904 191.726,162.262"/>
<polygon fill="#00c130" points="203.003,174.613 191.726,162.262 184.529,174.623"/>
<polygon fill="#00c130" points="200.465,179.647 203.003,174.613 184.529,174.623"/>
<polygon fill="#00c130" points="200.465,179.647 184.529,174.623 183.237,179.144"/>
<polygon fill="#00c130" points="200.465,179.647 183.237,179.144 183.127,192.268"/>
<polygon fill="#00c130" points="200.746,184.748 200.465,179.647 183.127,192.268"/>
<polygon fill="#00c130" points="200.746,184.748 183.127,192.268 184.334,196.12"/>
<polygon fill="#00c130" points="200.746,184.748 184.334,196.12 191.192,204.796"/>
<polygon fill="#00c130" points="203.715,187.946 200.746,184.748 191.192,204.796"/>
<polygon fill="#00c130" points="203.715,187.946 191.192,204.796 194.349,206.503"/>
<polygon fill="#00c130" points="203.715,187.946 194.349,206.503 205.306,207.58"/>
<polygon fill="#00c130" points="208.212,188.045 203.715,187.946 205.306,207.58"/>
<polygon fill="#00c130" points="208.212,188.045 205.306,207.58 209.154,206.584"/>
<polygon fill="#00c130" points="208.212,188.045 209.154,206.584 220.031,199.936"/>
<polygon fill="#00c130" points="212.523,185.039 208.212,188.045 220.031,199.936"/>
<polygon fill="#00c130" points="212.523,185.039 220.031,199.936 223.155,196.683"/>
<polygon fill="#00c130" points="223.155,196.683 233.341,198.438 236.604,192.841"/>
<polygon fill="#00c130" points="223.155,196.683 236.604,192.841 230.039,184.87"/>
<polygon fill="#00c130" points="231.327,180.55 242.062,174.69 242.29,168.639"/>
<polygon fill="#00c130" points="231.327,180.55 242.29,168.639 231.74,167.82"/>
<polygon fill="#00c130" points="230.704,163.986 238.03,152.41 235.041,148.08"/>
<polygon fill="#00c130" points="230.704,163.986 235.041,148.08 224.346,155.007"/>
<polygon fill="#00c130" points="221.297,153.111 222.211,139.891 216.971,139.03"/>
<polygon fill="#00c130" points="221.297,153.111 216.971,139.03 210.348,151.453"/>
<polygon fill="#00c130" points="206.395,152.312 200.13,142.552 194.629,145.7"/>
<polygon fill="#00c130" points="206.395,152.312 194.629,145.7 195.022,158.904"/>
<polygon fill="#00c130" points="191.726,162.262 180.508,160.019 177.026,166"/>
<polygon fill="#00c130" points="191.726,162.262 177.026,166 184.529,174.623"/>
<polygon fill="#00c130" points="183.237,179.144 171.555,185.331 171.539,191.658"/>
<polygon fill="#00c130" points="183.237,179.144 171.539,191.658 183.127,192.268"/>
<polygon fill="#00c130" points="184.334,196.12 176.805,208 180.145,212.118"/>
<polygon fill="#00c130" points="184.334,196.12 180.145,212.118 191.192,204.796"/>
<polygon fill="#00c130" points="194.349,206.503 193.61,219.196 198.855,219.65"/>
<polygon fill="#00c130" points="194.349,206.503 198.855,219.65 205.306,207.58"/>
<polygon fill="#00c130" points="209.154,206.584 215.082,215.328 220.236,212.141"/>
<polygon fill="#00c130" points="209.154,206.584 220.236,212.141 220.031,199.936"/>
</svg>
